# xmcd
#
# Track frame offsets: 
#        225
#        14650
#        22400
#        33505
#        48493
#        70866
#        83956
#        96095
#        113397
#        131299
#        152464
#        177339
#        232092
#
# Disc length: 3432 seconds
#
# Revision: 0
# Processed by: cddbd v1.5.2PL0 Copyright (c) Steve Scherf et al.
# Submitted via: ExactAudioCopy v0.99pb4
#
DISCID=a70d650d
DTITLE=Various Artist - It Don't Mean A Thing (If It Ain't Got That Swing!)
DYEAR=2004
DGENRE=
TTITLE0=Gettin' In The Mood For Love
TTITLE1=My Baby Just Cares For Me
TTITLE2=Falling In Love Again
TTITLE3=Mack The Knife
TTITLE4=Summertime
TTITLE5=Lost In The Stars
TTITLE6=We Have All The Time In The World
TTITLE7=To Know You Is To Love You
TTITLE8=As Time Goes By
TTITLE9=Just A Gigolo
TTITLE10=It Don't Mean A Thing (If It Ain't Got That Swing)
TTITLE11=Moonriver
TTITLE12=bonus track
EXTD=
EXTT0=
EXTT1=
EXTT2=
EXTT3=
EXTT4=
EXTT5=
EXTT6=
EXTT7=
EXTT8=
EXTT9=
EXTT10=
EXTT11=
EXTT12=
PLAYORDER=
